<svg width="40" height="40" fill="none" xmlns="http://www.w3.org/2000/svg"><path d="M22.344 40h-4.688c-.618 0-1.13-.48-1.17-1.099l-.102-1.719a17.564 17.564 0 0 1-5.974-2.479l-1.236 1.091a1.172 1.172 0 0 1-1.605-.05l-3.314-3.315a1.173 1.173 0 0 1-.05-1.604l1.092-1.236a17.59 17.59 0 0 1-2.481-5.973l-1.717-.103A1.171 1.171 0 0 1 0 22.343v-4.687c0-.619.48-1.13 1.099-1.17l1.717-.102a17.588 17.588 0 0 1 2.48-5.973L4.206 9.175a1.173 1.173 0 0 1 .05-1.604L7.57 4.256a1.174 1.174 0 0 1 1.605-.05l1.236 1.09a17.565 17.565 0 0 1 5.974-2.478l.103-1.72A1.172 1.172 0 0 1 17.657 0h4.687c.618 0 1.13.48 1.17 1.099l.102 1.719c2.12.446 4.157 1.29 5.974 2.479l1.236-1.091a1.176 1.176 0 0 1 1.605.05l3.314 3.315c.437.437.46 1.14.05 1.604l-1.092 1.236a17.59 17.59 0 0 1 2.481 5.973l1.717.103c.618.039 1.099.55 1.099 1.17v4.687c0 .619-.48 1.13-1.099 1.17l-1.717.102a17.588 17.588 0 0 1-2.48 5.973l1.091 1.236c.41.465.387 1.167-.05 1.604l-3.314 3.315a1.174 1.174 0 0 1-1.605.05l-1.236-1.09a17.564 17.564 0 0 1-5.974 2.478l-.103 1.72A1.172 1.172 0 0 1 22.343 40Z" fill="#4D4D99"/><path d="m38.901 16.487-1.717-.103a17.588 17.588 0 0 0-2.48-5.973l1.091-1.236a1.173 1.173 0 0 0-.05-1.604L32.43 4.256a1.176 1.176 0 0 0-1.605-.05l-1.236 1.09a17.565 17.565 0 0 0-5.974-2.478l-.103-1.72A1.172 1.172 0 0 0 22.343 0H20v40h2.344c.618 0 1.13-.48 1.17-1.099l.102-1.719a17.564 17.564 0 0 0 5.974-2.479l1.236 1.091a1.174 1.174 0 0 0 1.605-.05l3.314-3.315c.437-.437.46-1.14.05-1.604l-1.092-1.236a17.59 17.59 0 0 0 2.481-5.973l1.717-.103A1.171 1.171 0 0 0 40 22.343v-4.687c0-.619-.48-1.13-1.099-1.17Z" fill="#292966"/><path d="M16.484 27.031c0-.647-.524-1.172-1.172-1.172a1.173 1.173 0 0 1-1.171-1.172v-2.343A3.49 3.49 0 0 0 13.226 20a3.49 3.49 0 0 0 .915-2.344v-2.343c0-.647.526-1.172 1.171-1.172a1.171 1.171 0 1 0 0-2.344 3.52 3.52 0 0 0-3.515 3.515v2.344c0 .647-.527 1.172-1.172 1.172a1.171 1.171 0 1 0 0 2.344c.646 0 1.172.525 1.172 1.172v2.343a3.52 3.52 0 0 0 3.515 3.516c.648 0 1.172-.524 1.172-1.172Z" fill="#9FF"/><path d="M30.547 20c0-.648-.524-1.172-1.172-1.172a1.173 1.173 0 0 1-1.172-1.172v-2.343a3.52 3.52 0 0 0-3.515-3.516 1.171 1.171 0 1 0 0 2.344c.645 0 1.171.525 1.171 1.171v2.344c0 .904.353 1.72.915 2.344a3.489 3.489 0 0 0-.915 2.344v2.343c0 .647-.526 1.172-1.172 1.172a1.171 1.171 0 1 0 0 2.344 3.52 3.52 0 0 0 3.516-3.515v-2.344c0-.647.527-1.172 1.172-1.172.648 0 1.172-.524 1.172-1.172Z" fill="#66E6FF"/><path d="M17.656 21.172a1.172 1.172 0 1 0 0-2.344 1.172 1.172 0 0 0 0 2.344Z" fill="#9FF"/><path d="M22.344 21.172a1.172 1.172 0 1 0 0-2.344 1.172 1.172 0 0 0 0 2.344Z" fill="#66E6FF"/></svg>