<svg width="40" height="40" fill="none" xmlns="http://www.w3.org/2000/svg"><g opacity=".7"><path d="M16.063 7.434a11.378 11.378 0 0 1-5.7 3.766 1.386 1.386 0 1 0 .768 2.663 14.222 14.222 0 0 0 3.242-1.386l1.69-5.043Z" fill="#00CCF2"/><path d="m20.008 15.957 1.51-4.31a8.91 8.91 0 0 0 7.063-1.951l.186-.155c.578-.48.697-1.339.237-1.934a1.386 1.386 0 0 0-1.983-.22l-.212.176c-.361.3-.75.554-1.16.76-1.598.807-3.518.39-4.735-.922a3.285 3.285 0 0 0-5.586 1.409l-1.86 7.147h6.54Z" fill="#00CCF2"/><path d="M13.467 15.957 8.005 30.28c-.355.93.25 1.949 1.237 2.083l.036.005a1.58 1.58 0 0 0 1.63-.853c1.545-3.062 6.106-12.079 6.106-12.079h1.852l-.944 5.938a1.447 1.447 0 0 0 2.824.616l1.775-6.379a2.882 2.882 0 0 0-2.777-3.654H13.468Z" fill="#FFBE52"/><path d="m39.219 17.376-6.734 1.355 1.463 1.463-4.68 4.68-3.32-3.32L10.52 36.978l2.241 2.24 13.186-13.183 3.32 3.32 6.922-6.92 1.673 1.674 1.356-6.733Z" fill="#FF6371"/><path d="m39.219 17.376-6.734 1.355 1.463 1.463-4.68 4.68-3.32-3.32L10.52 36.978l2.241 2.24 13.186-13.183 3.32 3.32 6.922-6.92 1.673 1.674 1.356-6.733Z" fill="#FF6371"/><path d="M20.534 6.353a2.786 2.786 0 1 0 0-5.572 2.786 2.786 0 0 0 0 5.572Z" fill="#FED2A4"/><path d="M6.853 21.82 1.08 16.045a1.015 1.015 0 0 1 0-1.437l4.191-4.19a1.016 1.016 0 0 1 1.437 0l5.774 5.773c.397.397.397 1.04 0 1.436L8.29 21.82a1.016 1.016 0 0 1-1.437 0Z" fill="#FF9357"/><path d="m5.925 17.023-.24-.239c-.419-.42-.419-1.1 0-1.52l1-.998 1.759 1.758-1 1c-.42.419-1.1.419-1.52 0Z" fill="#fff"/><path d="M39.771 16.824a.782.782 0 0 0-.706-.214l-6.734 1.355a.782.782 0 0 0-.399 1.318l.911.911-3.575 3.575-2.768-2.767a.782.782 0 0 0-1.105 0l-3.396 3.396 1.274-4.577a3.634 3.634 0 0 0-.613-3.198 3.643 3.643 0 0 0-1.631-1.217l1.018-2.909c.281.025.561.038.839.038a9.716 9.716 0 0 0 6.194-2.239l.186-.155c.916-.76 1.073-2.084.357-3.011a2.15 2.15 0 0 0-1.479-.83 2.15 2.15 0 0 0-1.623.486l-.211.176a5.382 5.382 0 0 1-1.013.664c-1.205.608-2.71.337-3.71-.652a3.573 3.573 0 0 0 2.514-3.408A3.57 3.57 0 0 0 20.534 0a3.57 3.57 0 0 0-3.567 3.566c0 .783.254 1.507.683 2.096a4.07 4.07 0 0 0-2.1 1.184.78.78 0 0 0-.093.095 10.6 10.6 0 0 1-5.31 3.508 2.16 2.16 0 0 0-1.286 1.018l-1.602-1.6a1.8 1.8 0 0 0-2.541 0l-2.096 2.095-2.096 2.095c-.34.34-.526.79-.526 1.27s.187.932.526 1.271l5.775 5.774c.34.339.79.526 1.27.526s.932-.187 1.271-.526l2.17-2.17L9.983 22.9a.781.781 0 1 0 1.46.556l2.563-6.718h5.737c.663 0 1.273.303 1.673.83.401.527.529 1.196.351 1.834l-1.775 6.378a.668.668 0 0 1-1.149.254.658.658 0 0 1-.15-.537l.944-5.938a.781.781 0 0 0-.772-.904h-1.852a.781.781 0 0 0-.697.428c-.046.09-4.58 9.052-6.107 12.08a.802.802 0 0 1-.826.43l-.037-.005a.76.76 0 0 1-.555-.367.76.76 0 0 1-.057-.662l.482-1.262a.781.781 0 0 0-1.46-.557l-.482 1.262a2.314 2.314 0 0 0 .174 2.017c.365.614.98 1.022 1.688 1.117l.037.005a2.365 2.365 0 0 0 2.432-1.274c1.334-2.645 4.963-9.82 5.888-11.65h.457l-.801 5.034a2.225 2.225 0 0 0 1.523 2.473L9.97 36.426a.781.781 0 0 0 0 1.105l2.24 2.24a.78.78 0 0 0 1.106 0l4.308-4.307a.781.781 0 1 0-1.105-1.105l-3.756 3.755-1.136-1.136 14.322-14.32 2.768 2.768a.781.781 0 0 0 1.104 0l4.68-4.68a.781.781 0 0 0 0-1.104l-.432-.433 4.153-.835-.836 4.152-.643-.643a.782.782 0 0 0-1.105 0l-6.369 6.367-2.768-2.767a.782.782 0 0 0-1.105 0l-4.457 4.457a.781.781 0 1 0 1.105 1.105l3.905-3.905 2.767 2.768c.306.305.8.305 1.105 0l6.37-6.368 1.121 1.121a.781.781 0 0 0 1.319-.398l1.355-6.733a.781.781 0 0 0-.214-.706ZM20.534 1.562c1.105 0 2.005.9 2.005 2.004 0 1.106-.9 2.005-2.005 2.005s-2.004-.9-2.004-2.005.899-2.004 2.004-2.004ZM12.803 15.41l-.951-.95c.451-.148.895-.317 1.33-.505l-.38 1.455Zm-2.637-2.71a.605.605 0 0 1 .414-.748 12.188 12.188 0 0 0 3.562-1.688L13.7 11.96c-.878.485-1.813.873-2.786 1.153a.6.6 0 0 1-.465-.057l-.229-.229a.596.596 0 0 1-.054-.128Zm-4.343-1.728a.234.234 0 0 1 .331 0l2.848 2.848c.132.18.29.337.467.467l2.46 2.459a.235.235 0 0 1 0 .331l-1.544 1.543-1.716-1.716.327-.327a.781.781 0 0 0 0-1.105l-1.759-1.758a.782.782 0 0 0-1.105 0l-.327.327-1.526-1.526 1.544-1.543Zm1.07 5.499a.292.292 0 0 1-.416 0l-.239-.239a.292.292 0 0 1 0-.415l.447-.446.653.654-.446.446Zm.844 4.797a.23.23 0 0 1-.166.069.23.23 0 0 1-.165-.07L1.63 15.494a.23.23 0 0 1-.068-.165.23.23 0 0 1 .068-.166l1.544-1.543 1.598 1.599c-.12.248-.183.522-.183.806 0 .495.193.961.543 1.312l.24.239c.35.35.816.543 1.312.543.284 0 .558-.063.806-.183l1.79 1.789-1.544 1.543Zm11.16-6.091h-4.419l1.605-6.17a2.505 2.505 0 0 1 4.258-1.074c1.468 1.582 3.795 2.03 5.66 1.09a6.937 6.937 0 0 0 1.307-.858l.212-.176a.599.599 0 0 1 .453-.136.6.6 0 0 1 .413.233c.196.254.143.637-.119.855l-.186.154a8.149 8.149 0 0 1-5.195 1.878c-.411 0-.831-.032-1.249-.097a.78.78 0 0 0-.857.513l-1.326 3.788h-.556Z" fill="#000"/><path d="M19.295 31.935a.787.787 0 0 0-.552.229.787.787 0 0 0-.23.552.785.785 0 0 0 .782.782.784.784 0 0 0 .781-.782.787.787 0 0 0-.229-.552.786.786 0 0 0-.552-.229ZM9.598 26.884a.787.787 0 0 0 .552-.23.787.787 0 0 0 .23-.551.787.787 0 0 0-.23-.553.789.789 0 0 0-.552-.229.79.79 0 0 0-.553.23.787.787 0 0 0 0 1.104.789.789 0 0 0 .553.229Z" fill="#000"/></g></svg>