<svg width="40" height="40" fill="none" xmlns="http://www.w3.org/2000/svg"><g opacity=".7"><path d="M36.652 8.097H.002s.032 21.83 0 23.037l.001.031a4.424 4.424 0 0 0 1.34 3.063 4.421 4.421 0 0 0 3.104 1.263h19.358a.588.588 0 0 0 .416-.172l12.846-12.847c.11-.11.172-.26.172-.415V8.684a.587.587 0 0 0-.587-.587Z" fill="#E0E0E2"/><path d="M10.622 23.448h2.399l1.924-6.037 9.314-9.314h-2.192l-9.314 9.314-2.131 6.037ZM36.652 8.097h-1.957v16.747l2.372-2.372c.11-.11.172-.26.172-.415V8.684a.587.587 0 0 0-.587-.587Z" fill="#C6C5CA"/><path d="M26.75 23.929H10.492a.587.587 0 1 1 0-1.175H26.75a.587.587 0 1 1 0 1.175Z" fill="#3C5156"/><path d="M4.462 26.48c.253 0 .5.022.743.062V2.288a.587.587 0 0 0-.587-.587A4.623 4.623 0 0 0 0 6.32v24.046a4.505 4.505 0 0 1 4.462-3.885Z" fill="#919191"/><path d="M31.871 7.536 28.345 4.01a.587.587 0 0 0-.83 0L14.529 16.996l-.022.024 4.42 4.29L31.87 8.368a.587.587 0 0 0 0-.83Z" fill="#FFD039"/><path d="m17.314 19.745 1.613 1.566L31.87 8.367a.587.587 0 0 0 0-.83L30.696 6.36 17.314 19.745Z" fill="#FFA304"/><path d="M14.509 17.022a.587.587 0 0 0-.12.2l-1.922 5.443a.587.587 0 0 0 .75.75l5.443-1.922a.586.586 0 0 0 .262-.187l-4.413-4.284Z" fill="#FFC89F"/><path d="M13.02 23.448a.587.587 0 0 0 .196-.034l5.444-1.922a.586.586 0 0 0 .262-.186l-1.61-1.563-4.365 1.562-.48 1.36a.587.587 0 0 0 .554.783Z" fill="#F7B081"/><path d="M13.02 23.448a.588.588 0 0 0 .196-.034l3.433-1.212-2.975-2.954-1.207 3.417a.587.587 0 0 0 .554.783Z" fill="#3C5156"/><path d="m15.004 20.57-2.057.735-.48 1.36a.587.587 0 0 0 .75.75l3.432-1.212-1.645-1.634Z" fill="#304144"/><path d="m33.779 5.628-3.526-3.525a.587.587 0 0 0-.83 0L27.1 4.423l4.355 4.359 2.323-2.323a.587.587 0 0 0 0-.83Z" fill="#FF6137"/><path d="m29.866 7.191.552.552 1.038 1.038L33.78 6.46a.587.587 0 0 0 0-.83l-1.175-1.175-2.738 2.737Z" fill="#E04F32"/><path d="M35.357 2.349 33.533.524A1.779 1.779 0 0 0 32.267 0c-.478 0-.928.186-1.266.524l-1.163 1.163-.416.416-.423.423 4.365 4.348.623-.623 1.37-1.37c.338-.339.524-.788.524-1.266 0-.479-.186-.928-.524-1.266Z" fill="#546F7A"/><path d="m29.007 2.519-.008.007 1.303 1.297-1.295-1.304ZM35.357 2.349l-1.44-1.44c.236.313.365.692.365 1.092 0 .483-.186.938-.524 1.28l-1.37 1.385-.616.622 1.592 1.586.623-.623 1.37-1.37c.339-.339.525-.788.525-1.267a1.78 1.78 0 0 0-.525-1.265Z" fill="#475D63"/><path d="M39.638 18.754a.587.587 0 0 0-.64.127L19.009 38.87a.587.587 0 0 0 .415 1.002h19.989a.587.587 0 0 0 .587-.587V19.296a.587.587 0 0 0-.362-.542ZM28.752 35.123l6.417-6.416v6.416h-6.417Z" fill="#FFCA10"/><path d="M39.638 18.754a.587.587 0 0 0-.64.127l-1.542 1.542v19.449h1.957a.587.587 0 0 0 .587-.587V19.296a.587.587 0 0 0-.362-.542Z" fill="#FFA304"/><path d="M40 25.893h-2.257a.587.587 0 1 0 0 1.174H40v-1.174ZM40 28.836h-2.258a.587.587 0 1 0 0 1.175H40v-1.175ZM40 31.78h-2.258a.587.587 0 1 0 0 1.174H40V31.78ZM40 34.723h-2.258a.587.587 0 0 0 0 1.174H40v-1.174Z" fill="#C96E14"/></g></svg>