<svg width="184" height="75" fill="none" xmlns="http://www.w3.org/2000/svg"><path d="M64.32 22.593 45.237 37.615l-15.63 5.019-20.014-18.57 54.725-1.47Z" fill="#73E6D3"/><path d="m24.295 43.699 1.734 3.004-12.117 6.996-1.735-3.004 12.118-6.996ZM20.826 37.69l1.734 3.004-9.013 5.204-1.735-3.005 9.014-5.203Z" fill="#F3F5F9"/><path d="m27.764 49.708 1.734 3.004-9.013 5.204-1.735-3.005 9.014-5.203Z" fill="#E1E6F0"/><path d="m64.32 22.594-34.712 20.04 6.074 26.618L64.32 22.594Z" fill="#51CCCC"/><path d="m25.162 45.2.867 1.502-12.117 6.996-.868-1.502L25.162 45.2Z" fill="#E1E6F0"/><path d="M33.786 54c-.117 0-.215-.07-.293-.21a.876.876 0 0 1-.106-.388c0-.133.028-.234.082-.304.063-.078.164-.121.305-.13.469-.038.867-.113 1.195-.222.336-.117.504-.293.504-.527l.012-12.68c0-.312-.09-.547-.27-.703a1.325 1.325 0 0 0-.609-.305 9.54 9.54 0 0 0-.902-.129c-.172-.015-.285-.047-.34-.093-.055-.055-.082-.168-.082-.34 0-.117.035-.246.105-.387.078-.14.176-.21.293-.21h6.422c.117 0 .211.07.281.21.078.14.117.27.117.387a.493.493 0 0 1-.093.316c-.055.07-.152.11-.293.117a4.79 4.79 0 0 0-1.207.235c-.328.11-.492.281-.492.515l-.012 12.68c0 .313.09.547.27.703.18.156.382.258.609.305.226.047.527.09.902.129.172.015.285.05.34.105.055.047.082.157.082.328a.808.808 0 0 1-.117.387c-.07.14-.164.211-.281.211h-6.422Zm9.129 0c-.118 0-.215-.07-.293-.21a.876.876 0 0 1-.106-.388c0-.133.028-.234.082-.304.055-.07.157-.114.305-.13 1.289-.1 1.934-.429 1.934-.984V39.75c0-.445-.204-.766-.61-.96a4.405 4.405 0 0 0-1.394-.388c-.172-.015-.286-.047-.34-.093-.055-.055-.082-.168-.082-.34 0-.117.035-.246.105-.387.078-.14.176-.21.293-.21h4.547l9.234 12.362h.141V39.54c0-.305-.117-.535-.352-.691a1.714 1.714 0 0 0-.68-.293c-.226-.047-.59-.098-1.09-.153-.171-.015-.284-.047-.339-.093-.055-.055-.082-.168-.082-.34 0-.117.035-.246.105-.387.079-.14.176-.21.294-.21H60c.118 0 .212.07.282.21.078.14.117.27.117.387a.488.488 0 0 1-.082.304c-.055.07-.156.114-.305.13-.406.046-.738.097-.996.152-.258.054-.5.16-.726.316-.22.148-.328.363-.328.645v13.16c0 .14.011.289.035.445l.035.41c.023.29-.063.496-.258.621-.188.133-.402.2-.645.2a.904.904 0 0 1-.363-.082.702.702 0 0 1-.27-.176L46.302 40.723h-.199v11.109c0 .305.113.535.34.691.234.157.465.258.691.305.227.04.59.086 1.09.14.172.016.285.051.34.106.055.047.082.157.082.328 0 .117-.039.246-.117.387-.07.14-.164.211-.281.211h-5.332Zm18.984 0c-.117 0-.215-.07-.293-.21a.876.876 0 0 1-.105-.388c0-.133.027-.234.082-.304.054-.07.156-.114.304-.13 1.29-.1 1.934-.429 1.934-.984V39.75c0-.445-.203-.766-.61-.96a4.406 4.406 0 0 0-1.394-.388c-.172-.015-.285-.047-.34-.093-.055-.055-.082-.168-.082-.34 0-.117.035-.246.105-.387.079-.14.176-.21.294-.21h4.546l9.235 12.362h.14V39.54c0-.305-.117-.535-.351-.691a1.713 1.713 0 0 0-.68-.293c-.226-.047-.59-.098-1.09-.153-.172-.015-.285-.047-.34-.093-.054-.055-.082-.168-.082-.34 0-.117.036-.246.106-.387.078-.14.176-.21.293-.21h5.414c.117 0 .21.07.281.21.078.14.117.27.117.387a.488.488 0 0 1-.082.304c-.054.07-.156.114-.304.13-.407.046-.739.097-.996.152a2 2 0 0 0-.727.316c-.219.148-.328.363-.328.645v13.16c0 .14.012.289.035.445l.035.41c.024.29-.062.496-.258.621-.187.133-.402.2-.644.2a.904.904 0 0 1-.364-.082.702.702 0 0 1-.269-.176L65.286 40.723h-.2v11.109c0 .305.114.535.34.691.235.157.465.258.692.305.226.04.59.086 1.09.14.171.016.285.051.34.106.054.047.081.157.081.328 0 .117-.039.246-.117.387-.07.14-.164.211-.281.211h-5.332Zm27.117.34c-1.648 0-3.086-.387-4.312-1.16a7.66 7.66 0 0 1-2.825-3.153c-.648-1.328-.972-2.8-.972-4.418 0-1.609.328-3.066.984-4.37a7.529 7.529 0 0 1 2.848-3.083c1.242-.758 2.691-1.136 4.347-1.136 1.657 0 3.094.378 4.313 1.136a7.342 7.342 0 0 1 2.789 3.082c.648 1.297.973 2.754.973 4.371 0 1.618-.328 3.09-.985 4.418a7.73 7.73 0 0 1-2.836 3.153c-1.234.773-2.675 1.16-4.324 1.16Zm.047-1.102c1.156 0 2.074-.297 2.754-.89.688-.602 1.176-1.457 1.465-2.567.289-1.117.433-2.5.433-4.148 0-1.64-.152-3.012-.457-4.114-.296-1.101-.793-1.945-1.488-2.53-.687-.587-1.613-.88-2.777-.88-1.164 0-2.09.293-2.778.88-.68.585-1.164 1.429-1.453 2.53-.281 1.094-.422 2.465-.422 4.114 0 2.492.36 4.383 1.078 5.672.72 1.289 1.934 1.933 3.645 1.933Zm11.051-13.933c-.094-.266-.227-.461-.399-.586a1.18 1.18 0 0 0-.515-.235 3.504 3.504 0 0 0-.657-.07 2.89 2.89 0 0 1-.316-.012c-.172-.015-.285-.047-.34-.093-.054-.055-.082-.168-.082-.34 0-.117.04-.246.117-.387.07-.14.165-.21.282-.21h6.668c.117 0 .211.07.281.21a.81.81 0 0 1 .117.387.486.486 0 0 1-.082.304c-.055.07-.156.114-.305.13l-.48.023c-.414.008-.715.031-.902.07-.18.04-.27.129-.27.27 0 .039.012.09.035.152l4.43 11.918 4.101-11.566a.632.632 0 0 0 .024-.13c0-.218-.176-.386-.527-.503-.352-.125-.801-.203-1.348-.235-.149-.015-.25-.058-.305-.129a.486.486 0 0 1-.082-.304c0-.117.035-.246.106-.387.078-.14.175-.21.293-.21h5.343c.118 0 .211.07.282.21a.81.81 0 0 1 .117.387c0 .172-.028.285-.082.34-.055.047-.168.078-.34.093-.078.008-.281.024-.609.047-.329.016-.598.094-.809.235-.211.14-.371.347-.481.62l-5.683 14.907h-1.442l-6.14-14.906Zm31.64 13.664c.172.015.286.05.34.105.055.047.082.157.082.328a.81.81 0 0 1-.117.387c-.07.14-.164.211-.281.211h-6.352c-.117 0-.215-.07-.293-.21a.879.879 0 0 1-.105-.388c0-.133.027-.234.082-.304.055-.07.156-.114.305-.13l.48-.023c.399-.008.68-.027.844-.058.164-.04.246-.125.246-.258a.45.45 0 0 0-.035-.176l-1.43-4.172-5.625-.011-1.441 4.183a.371.371 0 0 0-.024.14c0 .141.086.231.258.27.172.04.465.067.879.082.117 0 .309.008.574.024.149.015.25.058.305.129.055.07.082.172.082.304a.81.81 0 0 1-.117.387c-.071.14-.164.211-.282.211h-4.957c-.125 0-.222-.059-.293-.176a.808.808 0 0 1-.105-.422c0-.172.027-.28.082-.328.055-.054.168-.09.34-.105a2.88 2.88 0 0 1 .316-.012c.25-.008.453-.027.61-.059.164-.039.324-.12.48-.246.156-.125.285-.32.387-.586l5.461-14.953h2.156l5.332 14.953c.094.266.219.465.375.598.156.125.316.203.481.234.171.032.382.051.632.059.149 0 .258.004.328.012Zm-8.882-12.89-2.637 7.194h4.945l-2.308-7.195ZM135.692 54c-.117 0-.215-.07-.293-.21a.879.879 0 0 1-.105-.388c0-.133.027-.234.082-.304.054-.07.156-.114.304-.13.703-.038 1.278-.132 1.723-.28.453-.157.68-.43.68-.82l.011-13.337h-2.965c-.406 0-.738.239-.996.715-.25.469-.433.988-.55 1.559-.118.57-.192 1.066-.223 1.488-.031.258-.199.387-.504.387a.946.946 0 0 1-.398-.106c-.141-.078-.207-.176-.2-.293.047-1.187.102-2.3.164-3.34.071-1.047.145-1.57.223-1.57h13.758c.078 0 .152.559.223 1.676.078 1.11.132 2.187.164 3.234 0 .117-.071.215-.211.293a.878.878 0 0 1-.387.106c-.313 0-.484-.13-.516-.387a11.213 11.213 0 0 0-.492-2.473c-.265-.86-.687-1.289-1.265-1.289h-2.895l-.012 13.301c0 .313.121.547.364.703.242.156.519.262.832.317.312.046.703.086 1.171.117.172.015.286.05.34.105.055.047.082.157.082.328a.81.81 0 0 1-.117.387c-.07.14-.164.211-.281.211h-7.711Zm12.773-.598c0-.133.028-.234.082-.304.055-.07.157-.114.305-.13.469-.038.871-.113 1.207-.222.336-.117.504-.293.504-.527v-12.68c0-.305-.09-.535-.269-.691a1.324 1.324 0 0 0-.598-.305 9.8 9.8 0 0 0-.914-.14c-.172-.016-.285-.047-.34-.094-.055-.055-.082-.168-.082-.34 0-.117.035-.246.105-.387.079-.14.176-.21.293-.21l12.176-.013.41 3.809a.305.305 0 0 1-.152.293.55.55 0 0 1-.316.105c-.165 0-.313-.023-.446-.07a.673.673 0 0 1-.328-.316l-.445-.856a10.44 10.44 0 0 0-.574-1.066 1.628 1.628 0 0 0-.539-.54c-.211-.132-.485-.199-.821-.199l-4.183.012v6.352l2.871-.012c.187-.023.367-.16.539-.41.172-.25.316-.531.433-.844.118-.32.188-.57.211-.75.032-.25.211-.375.539-.375.11 0 .223.04.34.117.125.07.188.164.188.282v5.191c0 .117-.063.215-.188.293a.66.66 0 0 1-.34.105.852.852 0 0 1-.386-.082.375.375 0 0 1-.188-.304c-.015-.196-.082-.461-.199-.797a3.616 3.616 0 0 0-.445-.902c-.18-.266-.371-.399-.575-.399l-2.8.012v5.683c0 .688.347 1.063 1.043 1.125l3.363-.011c.726 0 1.336-.242 1.828-.727.492-.492.918-1.312 1.277-2.46.039-.126.141-.22.305-.282a1.3 1.3 0 0 1 .492-.105c.156 0 .293.035.41.105.125.07.196.168.211.293l-.539 4.36-13.066.011c-.117 0-.215-.07-.293-.21a.881.881 0 0 1-.106-.388Zm16.629.598c-.117 0-.215-.07-.293-.21a.879.879 0 0 1-.105-.388c0-.133.027-.234.082-.304.055-.07.156-.114.305-.13.468-.038.867-.113 1.195-.222.336-.117.504-.293.504-.527v-12.68c0-.305-.09-.535-.27-.691a1.32 1.32 0 0 0-.597-.305 9.8 9.8 0 0 0-.914-.14c-.172-.016-.286-.047-.34-.094-.055-.055-.082-.168-.082-.34 0-.117.035-.246.105-.387.078-.14.176-.21.293-.21h7.371c2.024.007 3.699.382 5.028 1.124 1.328.742 2.3 1.715 2.918 2.918.617 1.195.925 2.508.925 3.938 0 1.914-.418 3.523-1.254 4.828-.836 1.297-1.882 2.258-3.14 2.883-1.258.624-2.52.937-3.785.937h-7.946Zm4.653-1.969c0 .211.175.395.527.551.359.156.996.234 1.91.234 1.133 0 2.094-.168 2.883-.504.797-.335 1.445-1.046 1.945-2.132.508-1.086.762-2.68.762-4.782 0-2.625-.535-4.43-1.605-5.414-1.071-.984-2.438-1.476-4.102-1.476h-2.309l-.011 13.523Z" fill="#171832"/></svg>